<svg width="80" height="80" viewBox="0 0 80 80" fill="none" xmlns="http://www.w3.org/2000/svg">
<path d="M45.9174 31.522C45.7903 31.3736 45.658 31.229 45.5203 31.0886L45.4606 31.0277C44.1801 29.7218 42.5204 28.8743 40.7366 28.5924C40.6973 28.3383 40.6453 28.0852 40.5805 27.834L40.5619 27.7618C40.0559 25.7988 38.7947 24.118 37.0625 23.0981C35.3302 22.0781 33.2724 21.8046 31.3523 22.3392L31.2817 22.3589C30.7939 22.4947 30.3249 22.6787 29.8804 22.9063L29.2918 21.8667C27.8515 19.3224 25.4488 17.4594 22.6527 16.6953C19.8537 15.9305 16.8341 16.3284 14.3122 17.8133C11.7904 19.2982 9.94256 21.7662 9.19259 24.6206C8.78799 26.1605 8.71291 27.7593 8.95626 29.305C8.06411 29.7282 7.2443 30.3081 6.5394 31.027L6.47968 31.0879C4.8903 32.7088 4 34.8884 4 37.1585V37.3285C4 39.5986 4.8903 41.7782 6.47968 43.3991L6.53941 43.46C8.13189 45.084 10.3108 45.9991 12.5854 45.9991H14.4415C14.4485 45.9997 14.4557 46 14.4629 46H22.7852" stroke="#D7DEEA" stroke-width="4" stroke-linecap="round" stroke-linejoin="round"/>
<path d="M62.8744 29.2365C66.064 31.0564 68.4303 34.0913 69.3863 37.6174C69.9017 39.5182 69.995 41.4925 69.6824 43.4059C70.8284 43.9347 71.8849 44.6616 72.7947 45.5608C74.8305 47.5726 75.999 50.3383 75.999 53.2004C75.999 56.0626 74.8305 58.8282 72.7947 60.8401C70.7614 62.8496 67.995 63.999 65.1362 63.999H62.709C62.7003 63.9997 62.6915 64 62.6827 64H33.3168C33.3141 64 33.3115 64 33.3088 63.9999H30.8618C28.003 63.9999 25.2367 62.8505 23.2033 60.841C21.1676 58.8291 19.999 56.0635 19.999 53.2013C19.999 50.3392 21.1676 47.5735 23.2033 45.5617C24.851 43.9333 26.9801 42.8697 29.2496 42.5248C29.3007 42.196 29.3692 41.8689 29.4555 41.5448C30.1052 39.1022 31.7129 37.0134 33.9195 35.7544C36.1261 34.4954 38.7604 34.1638 41.2257 34.8289C41.8619 35.0006 42.4746 35.235 43.0555 35.5261L43.7546 34.3295C45.6213 31.1342 48.6927 28.8021 52.2883 27.8499C55.8563 26.9051 59.6849 27.4166 62.8744 29.2365Z" stroke="#D7DEEA" stroke-width="4" stroke-linecap="round" stroke-linejoin="round"/>
</svg>
