<svg width="80" height="80" viewBox="0 0 80 80" fill="none" xmlns="http://www.w3.org/2000/svg">
<path d="M53.1629 30.347C55.911 31.9291 57.9243 34.5427 58.7461 37.6013C59.1885 39.2475 59.2684 40.9531 59.0003 42.6052C59.9828 43.0617 60.8878 43.6892 61.6686 44.4678C63.4223 46.2165 64.4126 48.5959 64.4126 51.0725C64.4126 53.5491 63.4223 55.9285 61.6686 57.6772C59.9154 59.4254 57.5359 60.4118 55.06 60.4118H53.0215C53.0139 60.4124 53.0063 60.4127 52.9986 60.4127H27.8278C27.825 60.4127 27.8222 60.4127 27.8194 60.4126H25.7652C23.2893 60.4126 20.9098 59.4262 19.1566 57.678C17.4029 55.9293 16.4126 53.5498 16.4126 51.0733C16.4126 48.5967 17.4029 46.2173 19.1566 44.4685C20.5701 43.059 22.3908 42.1447 24.3409 41.8434C24.3847 41.5582 24.4436 41.2745 24.5177 40.9935C25.0733 38.8863 26.4536 37.0726 28.3445 35.984C30.2354 34.8954 32.5006 34.6102 34.6085 35.1841C35.153 35.3323 35.6778 35.5348 36.1756 35.7862L36.788 34.7284C38.3798 31.9791 41.001 29.9729 44.0739 29.1518C47.1412 28.3323 50.4149 28.7648 53.1629 30.347Z" stroke="#D8DEE9" stroke-width="4.5" stroke-linecap="round" stroke-linejoin="round"/>
<path d="M36.1756 35.7861L36.788 34.7283C36.9331 34.4778 37.0866 34.2335 37.2483 33.9957C37.6282 32.8468 37.8254 31.6377 37.8254 30.4127C37.8254 28.0026 37.0624 25.6543 35.6457 23.7045C34.2291 21.7546 32.2316 20.3033 29.9394 19.5586C27.6472 18.8138 25.1781 18.8138 22.886 19.5586C20.5938 20.3033 18.5963 21.7546 17.1796 23.7045C15.763 25.6543 15 28.0026 15 30.4127C15 32.8228 15.763 35.1711 17.1796 37.1209C18.5963 39.0707 20.5938 40.522 22.886 41.2668C23.3752 41.4257 23.8725 41.5508 24.3744 41.6419" stroke="#D8DEE9" stroke-width="4.5" stroke-linecap="round" stroke-linejoin="round"/>
</svg>
