<svg width="80" height="80" viewBox="0 0 80 80" fill="none" xmlns="http://www.w3.org/2000/svg">
<path d="M29.2037 48.5727H23.2203L23.2129 48.5726H20.3731C17.1314 48.5726 14.0191 47.3004 11.7056 45.0295L11.6235 44.9488C9.30573 42.6737 8 39.5624 8 36.3146C8 33.0669 9.30573 29.9555 11.6235 27.6804L11.7056 27.5998C13.5867 25.7533 15.9959 24.5671 18.5734 24.1882C18.6316 23.817 18.7097 23.4475 18.8078 23.0813C19.5518 20.3034 21.3869 17.9393 23.9092 16.5099C26.4315 15.0804 29.4348 14.7025 32.2576 15.459C32.9854 15.654 33.686 15.9204 34.3501 16.2511L35.1356 14.9156C37.2774 11.2743 40.7991 8.61635 44.9174 7.53318C48.986 6.46306 53.3056 7.01715 56.9366 9.07492L57.0644 9.14735C60.6954 11.2051 63.344 14.6001 64.4342 18.5938C65.0248 20.7573 65.132 23.0011 64.7757 25.1778C66.0682 25.7693 67.261 26.5844 68.2944 27.5987L68.3765 27.6794C70.6943 29.9545 72 33.0658 72 36.3136C72 39.5613 70.6943 42.6727 68.3765 44.9478L68.2944 45.0284C65.9809 47.2993 62.8686 48.5715 59.6269 48.5715H56.8111C56.8067 48.5719 56.8024 48.5721 56.798 48.5723C56.7925 48.5725 56.7869 48.5727 56.7813 48.5727H42.6131" stroke="#D7DEEA" stroke-width="4" stroke-linecap="round" stroke-linejoin="round"/>
<path d="M38.3002 38.0283C38.9469 37.197 40.2752 37.5529 40.4196 38.5962L41.0301 43.0074L42.8187 49.2957C43.43 51.4449 43.0097 53.7712 41.6974 55.5798C40.5785 57.1218 38.8846 58.1702 37.0035 58.4722C34.9788 58.7974 32.9116 58.2434 31.3207 56.9495C29.8426 55.7474 28.8999 53.9925 28.7019 52.0976C28.4697 49.8752 29.2688 47.6504 30.8728 46.0948L35.566 41.5433L38.3002 38.0283Z" stroke="#D7DEEA" stroke-width="4" stroke-linecap="round" stroke-linejoin="round"/>
<path d="M51.9475 55.3743C52.5782 54.5926 53.837 54.9299 53.9923 55.9222L54.2381 57.492C54.4345 58.7468 54.7208 59.9858 55.0947 61.1995L56.1461 64.6122C56.7068 66.4322 56.3616 68.4106 55.2178 69.9332C54.2711 71.1934 52.8626 72.026 51.3021 72.2481L51.1148 72.2747C49.388 72.5204 47.6358 72.0509 46.2632 70.9747L46.1143 70.858C44.8739 69.8855 44.0705 68.4601 43.8807 66.8954C43.6514 65.0049 44.3417 63.1189 45.7373 61.8232L48.3542 59.3933C49.2848 58.5292 50.1523 57.5993 50.9497 56.6109L51.9475 55.3743Z" stroke="#D7DEEA" stroke-width="4" stroke-linecap="round" stroke-linejoin="round"/>
<path d="M22.7217 57.7802C23.3684 56.9488 24.6967 57.3048 24.8411 58.3481L25.2022 60.9577L26.5437 65.6739C27.0022 67.2858 26.6869 69.0305 25.7027 70.387C24.8636 71.5435 23.5931 72.3298 22.1823 72.5563C20.6638 72.8002 19.1133 72.3847 17.9202 71.4143C16.8117 70.5127 16.1046 69.1965 15.9561 67.7754C15.782 66.1086 16.3813 64.44 17.5843 63.2732L21.1042 59.8596L22.7217 57.7802Z" stroke="#D7DEEA" stroke-width="4" stroke-linecap="round" stroke-linejoin="round"/>
</svg>
