<svg width="80" height="80" viewBox="0 0 80 80" fill="none" xmlns="http://www.w3.org/2000/svg">
<path d="M15.7512 54L33.9613 43.4621C36.6233 41.9216 36.6233 38.0784 33.9613 36.5379" stroke="#D7DEEA" stroke-width="4" stroke-linecap="round" stroke-linejoin="round"/>
<path d="M15.7512 26L33.9823 36.5014C36.6475 38.0366 39.9758 36.1149 39.9789 33.0393" stroke="#D7DEEA" stroke-width="4" stroke-linecap="round" stroke-linejoin="round"/>
<path d="M40 12L40.0211 33.0393C40.0242 36.1149 43.3525 38.0365 46.0176 36.5014" stroke="#D7DEEA" stroke-width="4" stroke-linecap="round" stroke-linejoin="round"/>
<path d="M64.2486 26L46.0385 36.5379C43.3765 38.0784 43.3765 41.9216 46.0385 43.4621" stroke="#D7DEEA" stroke-width="4" stroke-linecap="round" stroke-linejoin="round"/>
<path d="M64.2487 54.0002L46.0176 43.4988C43.3525 41.9637 40.0242 43.8853 40.0211 46.9609" stroke="#D7DEEA" stroke-width="4" stroke-linecap="round" stroke-linejoin="round"/>
<path d="M39.9999 68.0002L39.9789 46.9609C39.9758 43.8853 36.6475 41.9637 33.9823 43.4988" stroke="#D7DEEA" stroke-width="4" stroke-linecap="round" stroke-linejoin="round"/>
<path d="M32.2448 16.4791L40.0035 23.7106L47.76 16.4811" stroke="#D7DEEA" stroke-width="4" stroke-linecap="round" stroke-linejoin="round"/>
<path d="M56.3482 21.4395L53.9656 31.7715L64.2493 34.9183" stroke="#D7DEEA" stroke-width="4" stroke-linecap="round" stroke-linejoin="round"/>
<path d="M64.2493 44.7466L53.9656 47.8934L56.4168 58.523" stroke="#D7DEEA" stroke-width="4" stroke-linecap="round" stroke-linejoin="round"/>
<path d="M47.9833 63.3923L40.0035 55.9547L32.0215 63.3943" stroke="#D7DEEA" stroke-width="4" stroke-linecap="round" stroke-linejoin="round"/>
<path d="M23.5894 58.526L26.0413 47.8936L15.752 44.745" stroke="#D7DEEA" stroke-width="4" stroke-linecap="round" stroke-linejoin="round"/>
<path d="M23.658 21.4365L26.0413 31.7714L15.752 34.92" stroke="#D7DEEA" stroke-width="4" stroke-linecap="round" stroke-linejoin="round"/>
</svg>
