<svg width="80" height="80" viewBox="0 0 80 80" fill="none" xmlns="http://www.w3.org/2000/svg">
<path d="M12.5 38.0159C13.1752 38.238 13.8275 38.5524 14.4378 38.9593L17.5626 41.0425C20.2498 42.834 23.7506 42.834 26.4378 41.0425L29.5626 38.9593C32.2498 37.1679 35.7506 37.1679 38.4378 38.9593L41.5626 41.0425C44.2498 42.834 47.7506 42.834 50.4378 41.0425L53.5626 38.9593C54.1728 38.5525 54.8249 38.2381 55.5 38.016" stroke="#D7DEEA" stroke-width="4" stroke-linecap="round" stroke-linejoin="round"/>
<path d="M24.5 28.2155C25.1752 27.9935 25.8275 27.679 26.4378 27.2721L29.5626 25.1889C32.2498 23.3975 35.7506 23.3975 38.4378 25.1889L41.5626 27.2721C44.2498 29.0636 47.7506 29.0636 50.4378 27.2721L53.5626 25.1889C56.2498 23.3975 59.7506 23.3975 62.4378 25.1889L65.5626 27.2721C66.1728 27.6789 66.8249 27.9934 67.5 28.2154" stroke="#D7DEEA" stroke-width="4" stroke-linecap="round" stroke-linejoin="round"/>
<path d="M24.5 55.7546C25.1752 55.5325 25.8275 55.2181 26.4378 54.8112L29.5626 52.728C32.2498 50.9365 35.7506 50.9365 38.4378 52.728L41.5626 54.8112C44.2498 56.6027 47.7506 56.6027 50.4378 54.8112L53.5626 52.728C56.2498 50.9365 59.7506 50.9365 62.4378 52.728L65.5626 54.8112C66.1728 55.218 66.8249 55.5324 67.5 55.7545" stroke="#D7DEEA" stroke-width="4" stroke-linecap="round" stroke-linejoin="round"/>
</svg>
