<svg width="80" height="80" viewBox="0 0 80 80" fill="none" xmlns="http://www.w3.org/2000/svg">
<path d="M31.2787 11.8885C28.5684 13.2437 26.8564 16.0138 26.8564 19.0439V42.7503C26.8564 43.3997 26.5346 44.0012 26.0338 44.4146C22.8766 47.0211 21 50.9268 21 55.0997C21 60.0501 23.641 64.6245 27.9282 67.0997C32.2154 69.5749 37.4974 69.5749 41.7846 67.0997C46.0718 64.6245 48.7128 60.0501 48.7128 55.0997C48.7128 50.9268 46.8363 47.0211 43.679 44.4146C43.1782 44.0012 42.8564 43.3997 42.8564 42.7503V19.0439C42.8564 16.0138 41.1444 13.2437 38.4341 11.8885C36.1819 10.7624 33.5309 10.7624 31.2787 11.8885Z" stroke="#D8DEE9" stroke-width="5" stroke-linecap="round" stroke-linejoin="round"/>
<path d="M52 15C52 12.7909 53.7909 11 56 11C58.2091 11 60 12.7909 60 15C60 17.2091 58.2091 19 56 19C53.7909 19 52 17.2091 52 15Z" stroke="#D8DEE9" stroke-width="4" stroke-linecap="round" stroke-linejoin="round"/>
</svg>
